<?xml version="1.0" encoding="UTF-8"?>
<svg xmlns="http://www.w3.org/2000/svg" version="1.1" viewBox="0 0 209.23 89.44">
  <defs>
    <style>
      .cls-1 {
        fill: #272525;
      }
    </style>
  </defs>
  <!-- Generator: Adobe Illustrator 28.7.1, SVG Export Plug-In . SVG Version: 1.2.0 Build 142)  -->
  <g>
    <g id="Layer_1">
      <g>
        <path class="cls-1" d="M61.86,28.99h0c-.72-1.58-1.54-3.06-2.44-4.4l-.75-1.12-2.86,1.5c-1.16.61-2.32,1.21-3.47,1.82l-1.52.79.99,1.4c.75,1.07,1.42,2.24,1.99,3.49,1.18,2.58,1.77,5.34,1.77,8.23s-.6,5.73-1.77,8.31c-1.19,2.6-2.83,4.9-4.89,6.84-2.05,1.94-4.49,3.52-7.25,4.67-2.73,1.14-5.69,1.71-8.78,1.71s-6.04-.58-8.74-1.71c-2.74-1.16-5.17-2.74-7.22-4.68-2.05-1.95-3.69-4.25-4.89-6.85-1.17-2.56-1.76-5.36-1.76-8.31s.59-5.66,1.76-8.22c1.19-2.59,2.83-4.89,4.89-6.85,2.07-1.96,4.5-3.53,7.22-4.68,2-.83,4.11-1.37,6.28-1.59l1.4-.14-.05-1.41c-.07-1.83-.13-3.65-.19-5.48l-.05-1.58-1.57.13c-3.21.27-6.32,1.02-9.26,2.22-3.77,1.55-7.12,3.7-9.97,6.39-2.84,2.7-5.12,5.89-6.77,9.5-1.67,3.66-2.52,7.6-2.52,11.71s.85,8.06,2.52,11.71c1.65,3.61,3.92,6.81,6.77,9.53,2.85,2.71,6.21,4.87,9.97,6.42,3.78,1.55,7.88,2.34,12.2,2.34s8.42-.79,12.23-2.34c3.81-1.55,7.18-3.72,10.01-6.42,2.85-2.72,5.11-5.93,6.74-9.54,1.64-3.64,2.47-7.58,2.47-11.71s-.83-8.07-2.47-11.71Z"/>
        <path class="cls-1" d="M65.41,15.26c-1.22-1.84-2.67-3.56-4.31-5.11-2.83-2.69-6.2-4.84-10.01-6.39-3.83-1.55-7.94-2.34-12.22-2.34-1,0-1.99.04-2.94.13l-1.42.12.05,1.66c.06,1.75.11,3.51.18,5.26l.06,1.62,1.61-.19c.75-.09,1.55-.13,2.45-.13,3.08,0,6.03.58,8.78,1.72,2.74,1.14,5.18,2.72,7.25,4.67,1.09,1.03,2.06,2.16,2.89,3.35l.75,1.08,1.17-.61c1.12-.58,2.25-1.17,3.37-1.76l3.25-1.7-.92-1.39Z"/>
        <g>
          <rect class="cls-1" x="74.97" y="24.21" width="5.28" height="42.24"/>
          <polygon class="cls-1" points="116.77 47.09 130.62 47.09 130.62 42.02 111.49 42.02 111.49 66.45 133.83 66.45 133.83 61.39 116.77 61.39 116.77 47.09"/>
          <rect class="cls-1" x="111.49" y="24.21" width="22.34" height="5.07"/>
          <path class="cls-1" d="M160.46,57.15c-.06-.06-.13-.12-.21-.2-2.25-2.19-4.06-4.79-5.38-7.72-1.3-2.91-1.97-6.02-1.97-9.27s.66-6.34,1.96-9.22c1.31-2.89,3.12-5.48,5.38-7.7,2.24-2.19,4.92-3.95,7.94-5.22,3.02-1.26,6.32-1.9,9.79-1.9,2.76,0,5.44.45,7.96,1.33l1.24.44,4.99-7.87-1.9-.72c-3.92-1.48-8.05-2.23-12.29-2.23-4.74,0-9.29.87-13.52,2.59-4.21,1.72-7.92,4.09-11.06,7.06-3.14,2.98-5.65,6.51-7.45,10.5-1.81,4.02-2.73,8.37-2.73,12.94s.92,8.91,2.73,12.93c1.8,3.99,4.3,7.53,7.45,10.54.52.49,1.06.97,1.6,1.42l1.45,1.2,5.08-7.98-1.07-.94Z"/>
          <rect class="cls-1" x="84.39" y="62" width="16.43" height="3.84"/>
          <path class="cls-1" d="M184.29,31.79l-5.92,9.29,19.4.02c-.36,2.75-1.5,5.39-2.5,7.25-1.42,2.66-3.29,5-5.56,6.94-2.28,1.95-4.94,3.5-7.89,4.61-2.93,1.09-6.12,1.6-9.45,1.53l-.95-.02c-1.54-.04-3.05-.2-4.49-.48l-1.11-.22-5.13,8.03,2.21.57c2.65.68,5.45,1.06,8.31,1.13l.95.02c.3,0,.59.01.89.01,4.38,0,8.6-.75,12.56-2.24,4.22-1.6,7.98-3.86,11.17-6.71,3.21-2.88,5.81-6.33,7.72-10.25,1.93-3.93,2.99-8.21,3.16-12.76l.14-6.19-23.52-.54Z"/>
        </g>
        <g>
          <path class="cls-1" d="M13.39,87.89h-.7l-4.77-11.57h1.55l3.59,8.7,2.36-5.68-1.23-3.02h1.55l.46,1.14c.09-.2.17-.4.26-.59.09-.19.16-.38.22-.55h1.55l-1.25,3.03c.22.53.42,1.02.61,1.48.18.46.37.9.55,1.34s.37.89.56,1.35c.19.46.4.96.62,1.5.59-1.43,1.19-2.88,1.81-4.36s1.22-2.92,1.81-4.33h1.55l-4.82,11.57h-.7l-2.74-6.71-2.82,6.71Z"/>
          <path class="cls-1" d="M27.39,87.89v-9.42h6.61v1.11h-5.13v2.73h4.1v1.11h-4.1v3.36h5.13v1.11h-6.61Z"/>
          <path class="cls-1" d="M38.42,78.47h4.32c.48,0,.91.06,1.31.19s.73.29,1.02.51c.29.22.51.47.67.77.16.3.24.62.24.96,0,.75-.33,1.33-.98,1.73.63.2,1.1.51,1.44.92.33.42.5.94.5,1.58,0,.5-.13.92-.38,1.27-.25.35-.59.63-1.02.85-.43.23-.93.39-1.51.49s-1.19.15-1.84.15h-3.77v-9.42ZM39.89,79.58v2.73h2.83c.27,0,.52-.05.75-.13s.42-.19.58-.32c.16-.13.29-.28.38-.45.09-.17.14-.33.14-.5,0-.35-.16-.66-.47-.92-.31-.26-.76-.4-1.35-.4h-2.85ZM39.89,83.42v3.39h2.37c1.02,0,1.81-.15,2.36-.46s.84-.71.84-1.2c0-1.15-.93-1.73-2.78-1.73h-2.8Z"/>
          <path class="cls-1" d="M60.28,76.32h2.26c1.06,0,2.05.15,2.98.44.93.29,1.75.69,2.44,1.2.69.51,1.24,1.12,1.64,1.81.4.7.6,1.46.6,2.28s-.2,1.58-.6,2.29c-.4.71-.94,1.33-1.64,1.85-.69.52-1.5.94-2.43,1.24-.93.3-1.92.45-2.97.45h-2.28v-11.57ZM61.75,77.46v9.28h.79c.86,0,1.66-.12,2.41-.36s1.4-.57,1.96-.99c.56-.42,1-.92,1.33-1.49.32-.58.49-1.19.49-1.85s-.16-1.27-.49-1.83c-.33-.56-.77-1.04-1.33-1.46-.56-.41-1.21-.73-1.96-.96-.75-.23-1.55-.34-2.41-.34h-.79Z"/>
          <path class="cls-1" d="M74.06,87.89v-9.42h6.61v1.11h-5.13v2.73h4.1v1.11h-4.1v3.36h5.13v1.11h-6.61Z"/>
          <path class="cls-1" d="M88.14,87.89l-4.12-9.42h1.55l2.94,6.69c.32-.74.64-1.47.95-2.19.31-.72.64-1.45.97-2.19l-1.01-2.31h1.53l.26.55.24-.55h1.53l-1.01,2.32c.18.43.35.82.51,1.16.15.35.3.68.45,1.01.15.33.3.67.45,1.01.15.35.32.73.51,1.16.49-1.12.98-2.23,1.48-3.34.5-1.11.99-2.22,1.48-3.33h1.53l-4.14,9.42h-.7l-2.34-5.34-2.34,5.34h-.7Z"/>
          <path class="cls-1" d="M101.7,87.89v-9.42h6.61v1.11h-5.13v2.73h4.1v1.11h-4.1v3.36h5.13v1.11h-6.61Z"/>
          <path class="cls-1" d="M119.32,86.78v1.11h-6.59v-9.42h1.47v8.31h5.12Z"/>
          <path class="cls-1" d="M127.63,78.33c.83,0,1.64.11,2.41.34.77.22,1.46.55,2.05.97s1.07.93,1.43,1.53c.36.6.53,1.27.53,2.01s-.18,1.42-.53,2.02-.83,1.1-1.43,1.52-1.28.74-2.05.97-1.58.34-2.41.34-1.64-.11-2.42-.34c-.78-.23-1.47-.55-2.06-.97-.6-.42-1.07-.93-1.43-1.52-.36-.59-.53-1.27-.53-2.02s.18-1.41.53-2.01c.36-.6.83-1.11,1.43-1.53.59-.42,1.28-.74,2.06-.97.78-.23,1.59-.34,2.42-.34ZM127.63,79.44c-.65,0-1.28.09-1.88.26-.6.18-1.13.42-1.59.74-.46.32-.83.71-1.09,1.17-.27.46-.4.98-.4,1.56s.13,1.1.4,1.56c.27.46.63.85,1.09,1.18.46.33.99.57,1.59.74.6.17,1.23.25,1.88.25s1.27-.08,1.87-.25,1.12-.42,1.58-.74c.46-.32.82-.72,1.09-1.18.27-.46.4-.98.4-1.56s-.14-1.1-.4-1.56c-.27-.46-.63-.85-1.09-1.17-.46-.32-.99-.57-1.58-.74-.6-.17-1.22-.26-1.87-.26Z"/>
          <path class="cls-1" d="M146.09,81.75c0,.49-.11.94-.34,1.33-.23.4-.53.75-.92,1.03-.39.29-.84.52-1.37.68-.53.16-1.09.24-1.69.24h-2.56v2.85h-1.47v-9.42h3.24c.75,0,1.44.08,2.06.23.63.16,1.17.38,1.62.66.45.28.81.63,1.06,1.03.25.41.38.86.38,1.36ZM144.62,81.75c0-.34-.1-.64-.29-.91-.19-.26-.44-.49-.76-.68-.32-.19-.69-.33-1.11-.44-.42-.1-.87-.15-1.33-.15h-1.91v4.35h2.56c.44,0,.84-.06,1.19-.17.35-.12.65-.27.89-.47.25-.19.44-.42.57-.69.14-.26.2-.55.2-.85Z"/>
          <path class="cls-1" d="M149.77,87.89v-9.42h1.42l5.1,7.86,5.06-7.86h1.36v9.42h-1.47l.04-6.71-4.36,6.71h-1.27l-4.4-6.77v6.77h-1.47Z"/>
          <path class="cls-1" d="M167.13,87.89v-9.42h6.61v1.11h-5.13v2.73h4.1v1.11h-4.1v3.36h5.13v1.11h-6.61Z"/>
          <path class="cls-1" d="M177.96,87.89v-9.42h1.27l6.29,4.42v-4.42h1.47v9.42h-1.47v-3.46l-6.09-4.28v7.74h-1.47Z"/>
          <path class="cls-1" d="M190.5,78.47h10.31v1.11h-4.42v8.31h-1.47v-8.31h-4.42v-1.11Z"/>
        </g>
      </g>
    </g>
  </g>
</svg>