<?xml version="1.0" encoding="UTF-8"?>
<svg xmlns="http://www.w3.org/2000/svg" version="1.1" viewBox="0 0 206.93 93.54">
  <defs>
    <style>
      .cls-1, .cls-2, .cls-3 {
        fill: #fff;
        stroke: #fff;
        stroke-miterlimit: 10;
      }

      .cls-2 {
        stroke-width: 3px;
      }

      .cls-3 {
        stroke-width: 3.31px;
      }
    </style>
  </defs>
  <!-- Generator: Adobe Illustrator 28.7.1, SVG Export Plug-In . SVG Version: 1.2.0 Build 142)  -->
  <g>
    <g id="Layer_1">
      <g>
        <path class="cls-2" d="M59.58,29.01c-.67-1.47-1.44-2.87-2.32-4.18-1.72.9-3.43,1.8-5.14,2.69.82,1.16,1.53,2.41,2.13,3.73,1.27,2.78,1.91,5.73,1.91,8.85s-.64,6.15-1.91,8.93c-1.27,2.78-3.01,5.22-5.22,7.31-2.21,2.09-4.78,3.74-7.7,4.97-2.93,1.22-6.05,1.83-9.36,1.83s-6.42-.61-9.33-1.83c-2.9-1.23-5.46-2.88-7.67-4.97-2.2-2.09-3.94-4.53-5.22-7.31-1.27-2.78-1.9-5.76-1.9-8.93s.63-6.07,1.9-8.85c1.28-2.79,3.02-5.22,5.22-7.31,2.21-2.09,4.77-3.75,7.67-4.97,2.13-.89,4.36-1.46,6.71-1.7-.07-1.83-.13-3.66-.19-5.49-3.09.26-6.03.97-8.82,2.11-3.63,1.49-6.79,3.52-9.51,6.09-2.71,2.57-4.86,5.58-6.44,9.03-1.58,3.46-2.38,7.16-2.38,11.09s.8,7.63,2.38,11.09c1.58,3.46,3.73,6.48,6.44,9.07,2.72,2.59,5.88,4.63,9.51,6.12,3.62,1.49,7.5,2.23,11.63,2.23s8.01-.74,11.66-2.23c3.65-1.49,6.83-3.53,9.54-6.12,2.71-2.59,4.85-5.61,6.41-9.07,1.56-3.46,2.34-7.15,2.34-11.09s-.78-7.63-2.34-11.09Z"/>
        <path class="cls-1" d="M74.56,24.12v41.24h4.28V24.12h-4.28Z"/>
        <path class="cls-1" d="M115.36,61.29v-15.3h13.85v-4.07h-18.13v23.43h21.34v-4.07h-17.06ZM111.08,24.12v4.07h21.34v-4.07h-21.34Z"/>
        <path class="cls-3" d="M177.07,7.95c-4.56,0-8.86.83-12.89,2.46-4.03,1.65-7.55,3.89-10.54,6.73-2.99,2.84-5.36,6.17-7.08,9.98-1.72,3.82-2.59,7.91-2.59,12.25s.86,8.43,2.59,12.25c1.72,3.82,4.09,7.16,7.08,10.02.49.46.99.92,1.51,1.35l3.3-5.19c-.09-.08-.19-.17-.28-.25-2.42-2.35-4.33-5.1-5.73-8.23-1.4-3.13-2.11-6.44-2.11-9.94s.71-6.81,2.11-9.9c1.4-3.1,3.31-5.83,5.73-8.2,2.41-2.35,5.24-4.21,8.46-5.57,3.24-1.35,6.72-2.02,10.43-2.02,2.93,0,5.77.46,8.51,1.43l3.19-5.04c-3.75-1.41-7.65-2.12-11.7-2.12Z"/>
        <path class="cls-2" d="M63.25,15.5c-1.72.9-3.43,1.8-5.14,2.69-.9-1.29-1.93-2.48-3.09-3.58-2.21-2.09-4.78-3.75-7.7-4.97-2.93-1.22-6.05-1.84-9.36-1.84-.89,0-1.76.04-2.62.14-.07-1.83-.13-3.66-.19-5.49.92-.08,1.86-.12,2.81-.12,4.12,0,8.01.75,11.66,2.23,3.65,1.49,6.83,3.52,9.54,6.09,1.55,1.47,2.92,3.09,4.09,4.85Z"/>
        <rect class="cls-1" x="83.48" y="61.4" width="16.43" height="3.84"/>
        <path class="cls-3" d="M205.21,33.36l-.1,4.53c-.15,4.3-1.14,8.32-2.99,12.07-1.83,3.75-4.28,7-7.34,9.74-3.06,2.74-6.61,4.86-10.65,6.4-4.05,1.52-8.32,2.23-12.83,2.12l-.95-.02c-2.75-.06-5.39-.42-7.93-1.08l3.29-5.15c1.54.3,3.13.47,4.77.51l.95.02c3.56.08,6.91-.46,10.06-1.64,3.15-1.18,5.96-2.81,8.39-4.9,2.44-2.09,4.42-4.56,5.94-7.42s2.8-6.32,2.8-9.68l-18.15-.02,3.8-5.96,20.93.48Z"/>
        <g>
          <path class="cls-1" d="M12.48,91.29h-.7l-4.77-11.56h1.55l3.59,8.7,2.36-5.68-1.23-3.02h1.55l.46,1.14c.09-.2.17-.4.26-.59.09-.19.16-.38.22-.55h1.55l-1.25,3.03c.22.53.42,1.02.61,1.48.18.46.37.9.55,1.34s.37.89.56,1.35c.19.46.4.96.62,1.5.59-1.43,1.19-2.88,1.81-4.36s1.22-2.92,1.81-4.33h1.55l-4.82,11.56h-.7l-2.74-6.71-2.82,6.71Z"/>
          <path class="cls-1" d="M26.48,91.29v-9.42h6.61v1.11h-5.13v2.73h4.1v1.11h-4.1v3.36h5.13v1.11h-6.61Z"/>
          <path class="cls-1" d="M37.51,81.88h4.32c.48,0,.91.06,1.31.19s.73.29,1.02.51c.29.22.51.47.67.77.16.3.24.62.24.96,0,.75-.33,1.33-.98,1.73.63.2,1.1.51,1.44.92.33.42.5.94.5,1.58,0,.5-.13.92-.38,1.27-.25.35-.59.63-1.02.85-.43.23-.93.39-1.51.49s-1.19.15-1.84.15h-3.77v-9.42ZM38.98,82.98v2.73h2.83c.27,0,.52-.05.75-.13s.42-.19.58-.32c.16-.13.29-.28.38-.45.09-.17.14-.33.14-.5,0-.35-.16-.66-.47-.92-.31-.26-.76-.4-1.35-.4h-2.85ZM38.98,86.82v3.39h2.37c1.02,0,1.81-.15,2.36-.46s.84-.71.84-1.2c0-1.15-.93-1.73-2.78-1.73h-2.8Z"/>
          <path class="cls-1" d="M59.37,79.73h2.26c1.06,0,2.05.15,2.98.44.93.29,1.75.69,2.44,1.2.69.51,1.24,1.12,1.64,1.81.4.7.6,1.46.6,2.28s-.2,1.58-.6,2.29c-.4.71-.94,1.33-1.64,1.85-.69.52-1.5.94-2.43,1.24-.93.3-1.92.45-2.97.45h-2.28v-11.56ZM60.84,80.87v9.28h.79c.86,0,1.66-.12,2.41-.36s1.4-.57,1.96-.99c.56-.42,1-.92,1.33-1.49.32-.58.49-1.19.49-1.85s-.16-1.27-.49-1.83c-.33-.56-.77-1.04-1.33-1.46-.56-.41-1.21-.73-1.96-.96-.75-.23-1.55-.34-2.41-.34h-.79Z"/>
          <path class="cls-1" d="M73.15,91.29v-9.42h6.61v1.11h-5.13v2.73h4.1v1.11h-4.1v3.36h5.13v1.11h-6.61Z"/>
          <path class="cls-1" d="M87.23,91.29l-4.12-9.42h1.55l2.94,6.69c.32-.74.64-1.47.95-2.19.31-.72.64-1.45.97-2.19l-1.01-2.31h1.53l.26.55.24-.55h1.53l-1.01,2.32c.18.43.35.82.51,1.16.15.35.3.68.45,1.01.15.33.3.67.45,1.01.15.35.32.73.51,1.16.49-1.12.98-2.23,1.48-3.34.5-1.11.99-2.22,1.48-3.33h1.53l-4.14,9.42h-.7l-2.34-5.34-2.34,5.34h-.7Z"/>
          <path class="cls-1" d="M100.79,91.29v-9.42h6.61v1.11h-5.13v2.73h4.1v1.11h-4.1v3.36h5.13v1.11h-6.61Z"/>
          <path class="cls-1" d="M118.4,90.19v1.11h-6.59v-9.42h1.47v8.31h5.12Z"/>
          <path class="cls-1" d="M126.72,81.74c.83,0,1.64.11,2.41.34.77.22,1.46.55,2.05.97s1.07.93,1.43,1.53c.36.6.53,1.27.53,2.01s-.18,1.42-.53,2.02-.83,1.1-1.43,1.52-1.28.74-2.05.97-1.58.34-2.41.34-1.64-.11-2.42-.34c-.78-.23-1.47-.55-2.06-.97-.6-.42-1.07-.93-1.43-1.52-.36-.59-.53-1.27-.53-2.02s.18-1.41.53-2.01c.36-.6.83-1.11,1.43-1.53.59-.42,1.28-.74,2.06-.97.78-.23,1.59-.34,2.42-.34ZM126.72,82.85c-.65,0-1.28.09-1.88.26-.6.18-1.13.42-1.59.74-.46.32-.83.71-1.09,1.17-.27.46-.4.98-.4,1.56s.13,1.1.4,1.56c.27.46.63.85,1.09,1.18.46.33.99.57,1.59.74.6.17,1.23.25,1.88.25s1.27-.08,1.87-.25,1.12-.42,1.58-.74c.46-.32.82-.72,1.09-1.18.27-.46.4-.98.4-1.56s-.14-1.1-.4-1.56c-.27-.46-.63-.85-1.09-1.17-.46-.32-.99-.57-1.58-.74-.6-.17-1.22-.26-1.87-.26Z"/>
          <path class="cls-1" d="M145.18,85.16c0,.49-.11.94-.34,1.33-.23.4-.53.75-.92,1.03-.39.29-.84.52-1.37.68-.53.16-1.09.24-1.69.24h-2.56v2.85h-1.47v-9.42h3.24c.75,0,1.44.08,2.06.23.63.16,1.17.38,1.62.66.45.28.81.63,1.06,1.03.25.41.38.86.38,1.36ZM143.71,85.16c0-.34-.1-.64-.29-.91-.19-.26-.44-.49-.76-.68-.32-.19-.69-.33-1.11-.44-.42-.1-.87-.15-1.33-.15h-1.91v4.35h2.56c.44,0,.84-.06,1.19-.17.35-.12.65-.27.89-.47.25-.19.44-.42.57-.69.14-.26.2-.55.2-.85Z"/>
          <path class="cls-1" d="M148.86,91.29v-9.42h1.42l5.1,7.86,5.06-7.86h1.36v9.42h-1.47l.04-6.71-4.36,6.71h-1.27l-4.4-6.77v6.77h-1.47Z"/>
          <path class="cls-1" d="M166.21,91.29v-9.42h6.61v1.11h-5.13v2.73h4.1v1.11h-4.1v3.36h5.13v1.11h-6.61Z"/>
          <path class="cls-1" d="M177.05,91.29v-9.42h1.27l6.29,4.42v-4.42h1.47v9.42h-1.47v-3.46l-6.09-4.28v7.74h-1.47Z"/>
          <path class="cls-1" d="M189.59,81.88h10.31v1.11h-4.42v8.31h-1.47v-8.31h-4.42v-1.11Z"/>
        </g>
      </g>
    </g>
  </g>
</svg>