<?xml version="1.0" encoding="UTF-8"?>
<svg xmlns="http://www.w3.org/2000/svg" version="1.1" viewBox="0 0 209.76 73.7">
  <defs>
    <style>
      .cls-1 {
        stroke-width: 3.31px;
      }

      .cls-1, .cls-2, .cls-3 {
        fill: #231f20;
        stroke: #231f20;
        stroke-miterlimit: 10;
      }

      .cls-2 {
        stroke-width: 3px;
      }
    </style>
  </defs>
  <!-- Generator: Adobe Illustrator 28.7.1, SVG Export Plug-In . SVG Version: 1.2.0 Build 142)  -->
  <g>
    <g id="Layer_1">
      <g>
        <rect class="cls-3" x="84.75" y="62.64" width="16.43" height="3.84"/>
        <path class="cls-2" d="M60.84,30.25c-.67-1.47-1.44-2.87-2.32-4.18-1.72.9-3.43,1.8-5.14,2.69.82,1.16,1.53,2.41,2.13,3.73,1.27,2.78,1.91,5.73,1.91,8.85s-.64,6.15-1.91,8.93c-1.27,2.78-3.01,5.22-5.22,7.31-2.21,2.09-4.78,3.74-7.7,4.97-2.93,1.22-6.05,1.83-9.36,1.83s-6.42-.61-9.33-1.83c-2.9-1.23-5.46-2.88-7.67-4.97-2.2-2.09-3.94-4.53-5.22-7.31-1.27-2.78-1.9-5.76-1.9-8.93s.63-6.07,1.9-8.85c1.28-2.79,3.02-5.22,5.22-7.31,2.21-2.09,4.77-3.75,7.67-4.97,2.13-.89,4.36-1.46,6.71-1.7-.07-1.83-.13-3.66-.19-5.49-3.09.26-6.03.97-8.82,2.11-3.63,1.49-6.79,3.52-9.51,6.09-2.71,2.57-4.86,5.58-6.44,9.03-1.58,3.46-2.38,7.16-2.38,11.09s.8,7.63,2.38,11.09c1.58,3.46,3.73,6.48,6.44,9.07,2.72,2.59,5.88,4.63,9.51,6.12,3.62,1.49,7.5,2.23,11.63,2.23s8.01-.74,11.66-2.23c3.65-1.49,6.83-3.53,9.54-6.12,2.71-2.59,4.85-5.61,6.41-9.07,1.56-3.46,2.34-7.15,2.34-11.09s-.78-7.63-2.34-11.09Z"/>
        <path class="cls-3" d="M75.82,25.36v41.24h4.28V25.36h-4.28Z"/>
        <path class="cls-3" d="M116.62,62.53v-15.3h13.85v-4.07h-18.13v23.43h21.34v-4.07h-17.06ZM112.34,25.36v4.07h21.34v-4.07h-21.34Z"/>
        <path class="cls-1" d="M178.33,9.19c-4.56,0-8.86.83-12.89,2.46-4.03,1.65-7.55,3.89-10.54,6.73-2.99,2.84-5.36,6.17-7.08,9.98-1.72,3.82-2.59,7.91-2.59,12.25s.86,8.43,2.59,12.25c1.72,3.82,4.09,7.16,7.08,10.02.49.46.99.92,1.51,1.35l3.3-5.19c-.09-.08-.19-.17-.28-.25-2.42-2.35-4.33-5.1-5.73-8.23-1.4-3.13-2.11-6.44-2.11-9.94s.71-6.81,2.11-9.9c1.4-3.1,3.31-5.83,5.73-8.2,2.41-2.35,5.24-4.21,8.46-5.57,3.24-1.35,6.72-2.02,10.43-2.02,2.93,0,5.77.46,8.51,1.43l3.19-5.04c-3.75-1.41-7.65-2.12-11.7-2.12Z"/>
        <path class="cls-2" d="M64.51,16.73c-1.72.9-3.43,1.8-5.14,2.69-.9-1.29-1.93-2.48-3.09-3.58-2.21-2.09-4.78-3.75-7.7-4.97-2.93-1.22-6.05-1.84-9.36-1.84-.89,0-1.76.04-2.62.14-.07-1.83-.13-3.66-.19-5.49.92-.08,1.86-.12,2.81-.12,4.12,0,8.01.75,11.66,2.23,3.65,1.49,6.83,3.52,9.54,6.09,1.55,1.47,2.92,3.09,4.09,4.85Z"/>
        <path class="cls-1" d="M206.47,34.6l-.1,4.53c-.15,4.3-1.14,8.32-2.99,12.07-1.83,3.75-4.28,7-7.34,9.74-3.06,2.74-6.61,4.86-10.65,6.4-4.05,1.52-8.32,2.23-12.83,2.12l-.95-.02c-2.75-.06-5.39-.42-7.93-1.08l3.29-5.15c1.54.3,3.13.47,4.77.51l.95.02c3.56.08,6.91-.46,10.06-1.64,3.15-1.18,5.96-2.81,8.39-4.9,2.44-2.09,4.42-4.56,5.94-7.42s2.8-6.32,2.8-9.68l-18.15-.02,3.8-5.96,20.93.48Z"/>
      </g>
    </g>
  </g>
</svg>